<svg xmlns="http://www.w3.org/2000/svg" viewBox="0 0 1920 1080" width="1920" height="1080"><rect width="1920" height="1080" fill="url(#bg)"/><linearGradient id="bg" x1="0" y1="0" x2="0.7" y2="1"><stop offset="0" stop-color="#07090C"/><stop offset="1" stop-color="#10141B"/></linearGradient><filter id="grain" x="0" y="0" width="100%" height="100%">
  <feTurbulence type="fractalNoise" baseFrequency="0.9" numOctaves="2" seed="366" result="n"/>
  <feColorMatrix in="n" type="matrix" values="0 0 0 0 0.6 0 0 0 0 0.62 0 0 0 0 0.66 0 0 0 0.05 0"/>
</filter><rect width="1920" height="1080" filter="url(#grain)" opacity="0.6"/><g stroke="#FFFFFF" stroke-opacity="0.04" stroke-width="1"><line x1="320" y1="0" x2="320" y2="1080"/><line x1="640" y1="0" x2="640" y2="1080"/><line x1="960" y1="0" x2="960" y2="1080"/><line x1="1280" y1="0" x2="1280" y2="1080"/><line x1="1600" y1="0" x2="1600" y2="1080"/><line x1="0" y1="320" x2="1920" y2="320"/><line x1="0" y1="640" x2="1920" y2="640"/><line x1="0" y1="960" x2="1920" y2="960"/></g><radialGradient id="gl" cx="0.5" cy="0.5" r="0.5">
    <stop offset="0" stop-color="#E63946" stop-opacity="0.32"/>
    <stop offset="1" stop-color="#E63946" stop-opacity="0"/>
  </radialGradient>
  <circle cx="960" cy="669.6" r="700" fill="url(#gl)"/><circle cx="960" cy="604.8000000000001" r="150" fill="#FF8A5C" opacity="0.85"/>
     <circle cx="960" cy="604.8000000000001" r="150" fill="none" stroke="#E63946" stroke-opacity="0.35" stroke-width="1"/><polygon points="0,777.6 345.59999999999997,540 652.8000000000001,669.6 960,453.59999999999997 1305.6000000000001,648 1574.3999999999999,540 1920,777.6 1920,2000 0,2000" fill="#0B0E13" fill-opacity="0.95"/><polygon points="0,842.4 192,712.8000000000001 806.4,594 1267.2,734.4000000000001 1766.4,648 1920,842.4 1920,2000 0,2000" fill="#10141B" fill-opacity="0.9"/><circle cx="942" cy="696" r="2.8" fill="#0B0E13" opacity="0.37" stroke="#FFFFFF" stroke-opacity="0.1"/><circle cx="856" cy="672" r="2.5" fill="#0B0E13" opacity="0.69" stroke="#FFFFFF" stroke-opacity="0.1"/><circle cx="1125" cy="631" r="4.0" fill="#0B0E13" opacity="0.64" stroke="#FFFFFF" stroke-opacity="0.1"/><circle cx="1250" cy="487" r="5.5" fill="#0B0E13" opacity="0.37" stroke="#FFFFFF" stroke-opacity="0.1"/><circle cx="1276" cy="522" r="5.9" fill="#0B0E13" opacity="0.49" stroke="#FFFFFF" stroke-opacity="0.1"/><circle cx="364" cy="475" r="8.6" fill="#0B0E13" opacity="0.73" stroke="#FFFFFF" stroke-opacity="0.1"/><circle cx="262" cy="646" r="8.7" fill="#0B0E13" opacity="0.34" stroke="#FFFFFF" stroke-opacity="0.1"/><circle cx="811" cy="691" r="6.7" fill="#0B0E13" opacity="0.39" stroke="#FFFFFF" stroke-opacity="0.1"/><circle cx="354" cy="879" r="5.1" fill="#0B0E13" opacity="0.37" stroke="#FFFFFF" stroke-opacity="0.1"/><circle cx="1047" cy="596" r="3.1" fill="#0B0E13" opacity="0.64" stroke="#FFFFFF" stroke-opacity="0.1"/><circle cx="687" cy="605" r="2.6" fill="#0B0E13" opacity="0.71" stroke="#FFFFFF" stroke-opacity="0.1"/><circle cx="479" cy="836" r="5.3" fill="#0B0E13" opacity="0.37" stroke="#FFFFFF" stroke-opacity="0.1"/><circle cx="1149" cy="627" r="7.3" fill="#0B0E13" opacity="0.58" stroke="#FFFFFF" stroke-opacity="0.1"/><circle cx="290" cy="550" r="5.2" fill="#0B0E13" opacity="0.30" stroke="#FFFFFF" stroke-opacity="0.1"/><circle cx="128" cy="632" r="6.8" fill="#0B0E13" opacity="0.57" stroke="#FFFFFF" stroke-opacity="0.1"/><circle cx="1798" cy="594" r="5.1" fill="#0B0E13" opacity="0.50" stroke="#FFFFFF" stroke-opacity="0.1"/><circle cx="847" cy="816" r="5.2" fill="#0B0E13" opacity="0.47" stroke="#FFFFFF" stroke-opacity="0.1"/><circle cx="526" cy="556" r="7.2" fill="#0B0E13" opacity="0.32" stroke="#FFFFFF" stroke-opacity="0.1"/><circle cx="537" cy="785" r="8.0" fill="#0B0E13" opacity="0.73" stroke="#FFFFFF" stroke-opacity="0.1"/><circle cx="1745" cy="825" r="7.2" fill="#0B0E13" opacity="0.57" stroke="#FFFFFF" stroke-opacity="0.1"/><circle cx="1060" cy="464" r="4.3" fill="#0B0E13" opacity="0.43" stroke="#FFFFFF" stroke-opacity="0.1"/><circle cx="436" cy="624" r="6.8" fill="#0B0E13" opacity="0.62" stroke="#FFFFFF" stroke-opacity="0.1"/><circle cx="531" cy="867" r="2.0" fill="#0B0E13" opacity="0.43" stroke="#FFFFFF" stroke-opacity="0.1"/><circle cx="1118" cy="644" r="2.6" fill="#0B0E13" opacity="0.75" stroke="#FFFFFF" stroke-opacity="0.1"/><circle cx="880" cy="830" r="6.1" fill="#0B0E13" opacity="0.48" stroke="#FFFFFF" stroke-opacity="0.1"/><circle cx="270" cy="796" r="8.3" fill="#0B0E13" opacity="0.38" stroke="#FFFFFF" stroke-opacity="0.1"/><circle cx="85" cy="520" r="6.9" fill="#0B0E13" opacity="0.60" stroke="#FFFFFF" stroke-opacity="0.1"/><circle cx="1255" cy="829" r="3.6" fill="#0B0E13" opacity="0.67" stroke="#FFFFFF" stroke-opacity="0.1"/><circle cx="350" cy="470" r="2.6" fill="#0B0E13" opacity="0.26" stroke="#FFFFFF" stroke-opacity="0.1"/><circle cx="1028" cy="812" r="7.9" fill="#0B0E13" opacity="0.32" stroke="#FFFFFF" stroke-opacity="0.1"/><circle cx="949" cy="476" r="4.0" fill="#0B0E13" opacity="0.49" stroke="#FFFFFF" stroke-opacity="0.1"/><circle cx="158" cy="607" r="3.6" fill="#0B0E13" opacity="0.40" stroke="#FFFFFF" stroke-opacity="0.1"/><circle cx="1495" cy="513" r="3.2" fill="#0B0E13" opacity="0.25" stroke="#FFFFFF" stroke-opacity="0.1"/><circle cx="1188" cy="491" r="4.8" fill="#0B0E13" opacity="0.30" stroke="#FFFFFF" stroke-opacity="0.1"/><circle cx="920" cy="633" r="2.1" fill="#0B0E13" opacity="0.63" stroke="#FFFFFF" stroke-opacity="0.1"/><circle cx="871" cy="773" r="4.4" fill="#0B0E13" opacity="0.72" stroke="#FFFFFF" stroke-opacity="0.1"/><circle cx="1359" cy="730" r="3.9" fill="#0B0E13" opacity="0.43" stroke="#FFFFFF" stroke-opacity="0.1"/><circle cx="182" cy="834" r="2.6" fill="#0B0E13" opacity="0.28" stroke="#FFFFFF" stroke-opacity="0.1"/><circle cx="383" cy="585" r="2.2" fill="#0B0E13" opacity="0.55" stroke="#FFFFFF" stroke-opacity="0.1"/><circle cx="849" cy="617" r="5.8" fill="#0B0E13" opacity="0.70" stroke="#FFFFFF" stroke-opacity="0.1"/><rect x="660" y="561.6" width="600" height="1" fill="#FFFFFF" opacity="0.14"/><text x="960" y="520" text-anchor="middle" font-family="ui-monospace, monospace" font-size="16" letter-spacing="6" fill="#F4F4F2" opacity="0.8">06°10′S — 106°49′E</text></svg>